<svg id="Capa_1" enable-background="new 0 0 512 512" height="512" viewBox="0 0 512 512" width="512" xmlns="http://www.w3.org/2000/svg"><path d="m61 45v70.005c0 6.453 4.129 12.182 10.25 14.222l34.457 11.486-39.316 32.754c-3.415 2.845-5.391 7.06-5.391 11.506v40.027h30c8.291 0 15 6.709 15 15s-6.709 15-15 15h-30v137h195c8.284 0 15 6.714 15 15v41.788c0 29.888 20.422 57.59 49.924 62.39 37.589 6.116 70.076-22.738 70.076-59.178v-86.005c0-6.46-4.131-12.188-10.254-14.224l-34.453-11.484 9.316-7.764c3.413-2.856 5.391-7.075 5.391-11.528v-28.784l25.607-26.609c2.813-2.811 4.393-6.625 4.393-10.602v-60h-30c-8.291 0-15-6.709-15-15s6.709-15 15-15h30v-120c0-16.948 5.865-32.426 15.383-45h-300.383c-24.853 0-45 20.147-45 45zm270 90h-150c-8.291 0-15-6.709-15-15s6.709-15 15-15h150c8.291 0 15 6.709 15 15s-6.709 15-15 15zm-180-90h180c8.291 0 15 6.709 15 15s-6.709 15-15 15h-180c-8.291 0-15-6.709-15-15s6.709-15 15-15zm0 120h150c8.291 0 15 6.709 15 15s-6.709 15-15 15h-150c-8.291 0-15-6.709-15-15s6.709-15 15-15zm0 60h150c8.291 0 15 6.709 15 15s-6.709 15-15 15h-150c-8.291 0-15-6.709-15-15s6.709-15 15-15zm-30 91h90c8.291 0 15 6.709 15 15s-6.709 15-15 15h-90c-8.291 0-15-6.709-15-15s6.709-15 15-15z"/><path d="m60 512h204.408c-14.392-15.959-23.408-36.866-23.408-60v-30h-226c-8.284 0-15 6.714-15 15v15c0 33.137 26.863 60 60 60z"/><path d="m466 0c-24.853 0-45 20.147-45 45v45h76c8.284 0 15-6.716 15-15v-30c0-24.853-21.147-45-46-45z"/></svg>